<mxfile host="app.diagrams.net" agent="Mozilla/5.0 (X11; Ubuntu; Linux x86_64; rv:136.0) Gecko/20100101 Firefox/136.0" version="26.1.3">
  <diagram name="第 1 页" id="dU873i3rLexhZHskiEWX">
    <mxGraphModel dx="1352" dy="789" grid="1" gridSize="10" guides="1" tooltips="1" connect="1" arrows="1" fold="1" page="1" pageScale="1" pageWidth="827" pageHeight="1169" math="0" shadow="0">
      <root>
        <mxCell id="0" />
        <mxCell id="1" parent="0" />
        <mxCell id="DoE84pz3BogYh7dgij0p-17" value="" style="rounded=0;whiteSpace=wrap;html=1;" vertex="1" parent="1">
          <mxGeometry x="70" y="75" width="770" height="400" as="geometry" />
        </mxCell>
        <mxCell id="DoE84pz3BogYh7dgij0p-14" value="" style="rounded=0;whiteSpace=wrap;html=1;fillColor=#7EA6E0;" vertex="1" parent="1">
          <mxGeometry x="110" y="110" width="690" height="300" as="geometry" />
        </mxCell>
        <mxCell id="DoE84pz3BogYh7dgij0p-10" value="" style="edgeStyle=orthogonalEdgeStyle;rounded=0;orthogonalLoop=1;jettySize=auto;html=1;" edge="1" parent="1" source="DoE84pz3BogYh7dgij0p-1" target="DoE84pz3BogYh7dgij0p-2">
          <mxGeometry relative="1" as="geometry" />
        </mxCell>
        <mxCell id="DoE84pz3BogYh7dgij0p-1" value="uni-app" style="rounded=0;whiteSpace=wrap;html=1;fillColor=#66CC00;" vertex="1" parent="1">
          <mxGeometry x="160" y="180" width="120" height="60" as="geometry" />
        </mxCell>
        <mxCell id="DoE84pz3BogYh7dgij0p-11" value="" style="edgeStyle=orthogonalEdgeStyle;rounded=0;orthogonalLoop=1;jettySize=auto;html=1;" edge="1" parent="1" source="DoE84pz3BogYh7dgij0p-2" target="DoE84pz3BogYh7dgij0p-1">
          <mxGeometry relative="1" as="geometry" />
        </mxCell>
        <mxCell id="DoE84pz3BogYh7dgij0p-2" value="Spring Boot" style="rounded=0;whiteSpace=wrap;html=1;fillColor=#66CC00;" vertex="1" parent="1">
          <mxGeometry x="360" y="180" width="120" height="60" as="geometry" />
        </mxCell>
        <mxCell id="DoE84pz3BogYh7dgij0p-20" style="edgeStyle=orthogonalEdgeStyle;rounded=0;orthogonalLoop=1;jettySize=auto;html=1;entryX=0.5;entryY=1;entryDx=0;entryDy=0;" edge="1" parent="1" source="DoE84pz3BogYh7dgij0p-3" target="DoE84pz3BogYh7dgij0p-2">
          <mxGeometry relative="1" as="geometry">
            <Array as="points">
              <mxPoint x="720" y="250" />
              <mxPoint x="420" y="250" />
            </Array>
          </mxGeometry>
        </mxCell>
        <mxCell id="DoE84pz3BogYh7dgij0p-3" value="ESP32S3" style="rounded=0;whiteSpace=wrap;html=1;fillColor=#FF0000;" vertex="1" parent="1">
          <mxGeometry x="660" y="180" width="120" height="60" as="geometry" />
        </mxCell>
        <mxCell id="DoE84pz3BogYh7dgij0p-4" value="&lt;div&gt;前端App&lt;/div&gt;" style="text;html=1;align=center;verticalAlign=middle;resizable=0;points=[];autosize=1;strokeColor=none;fillColor=#4D9900;" vertex="1" parent="1">
          <mxGeometry x="186" y="128" width="70" height="30" as="geometry" />
        </mxCell>
        <mxCell id="DoE84pz3BogYh7dgij0p-5" value="后端" style="text;html=1;align=center;verticalAlign=middle;resizable=0;points=[];autosize=1;strokeColor=none;fillColor=#4D9900;" vertex="1" parent="1">
          <mxGeometry x="396" y="128" width="50" height="30" as="geometry" />
        </mxCell>
        <mxCell id="DoE84pz3BogYh7dgij0p-6" value="设备端" style="text;html=1;align=center;verticalAlign=middle;resizable=0;points=[];autosize=1;strokeColor=none;fillColor=#FF0000;" vertex="1" parent="1">
          <mxGeometry x="691" y="128" width="60" height="30" as="geometry" />
        </mxCell>
        <mxCell id="DoE84pz3BogYh7dgij0p-8" style="edgeStyle=orthogonalEdgeStyle;rounded=0;orthogonalLoop=1;jettySize=auto;html=1;entryX=0;entryY=0.5;entryDx=0;entryDy=0;" edge="1" parent="1" source="DoE84pz3BogYh7dgij0p-7" target="DoE84pz3BogYh7dgij0p-3">
          <mxGeometry relative="1" as="geometry" />
        </mxCell>
        <mxCell id="DoE84pz3BogYh7dgij0p-9" value="" style="edgeStyle=orthogonalEdgeStyle;rounded=0;orthogonalLoop=1;jettySize=auto;html=1;" edge="1" parent="1" source="DoE84pz3BogYh7dgij0p-7" target="DoE84pz3BogYh7dgij0p-2">
          <mxGeometry relative="1" as="geometry" />
        </mxCell>
        <mxCell id="DoE84pz3BogYh7dgij0p-7" value="MQTT" style="rounded=0;whiteSpace=wrap;html=1;fillColor=#66CC00;" vertex="1" parent="1">
          <mxGeometry x="530" y="195" width="79" height="30" as="geometry" />
        </mxCell>
        <mxCell id="DoE84pz3BogYh7dgij0p-12" value="http" style="text;html=1;align=center;verticalAlign=middle;resizable=0;points=[];autosize=1;strokeColor=none;fillColor=none;" vertex="1" parent="1">
          <mxGeometry x="301" y="178" width="40" height="30" as="geometry" />
        </mxCell>
        <mxCell id="DoE84pz3BogYh7dgij0p-13" value="禅道" style="shape=cylinder3;whiteSpace=wrap;html=1;boundedLbl=1;backgroundOutline=1;size=15;fillColor=#007FFF;" vertex="1" parent="1">
          <mxGeometry x="420" y="300" width="60" height="80" as="geometry" />
        </mxCell>
        <mxCell id="DoE84pz3BogYh7dgij0p-15" value="测试" style="text;html=1;align=center;verticalAlign=middle;whiteSpace=wrap;rounded=0;fillColor=#007FFF;" vertex="1" parent="1">
          <mxGeometry x="420" y="260" width="60" height="30" as="geometry" />
        </mxCell>
        <mxCell id="DoE84pz3BogYh7dgij0p-16" value="项目管理人员" style="text;html=1;align=center;verticalAlign=middle;whiteSpace=wrap;rounded=0;fillColor=#6600CC;" vertex="1" parent="1">
          <mxGeometry x="191" y="300" width="89" height="30" as="geometry" />
        </mxCell>
        <mxCell id="DoE84pz3BogYh7dgij0p-23" value="http" style="text;html=1;align=center;verticalAlign=middle;whiteSpace=wrap;rounded=0;" vertex="1" parent="1">
          <mxGeometry x="539.5" y="225" width="60" height="30" as="geometry" />
        </mxCell>
      </root>
    </mxGraphModel>
  </diagram>
</mxfile>
